<svg width="12" height="12" viewBox="0 0 12 12" fill="none" xmlns="http://www.w3.org/2000/svg">
<path d="M2.45397 0C2.01747 0 1.63647 0.382 1.63647 0.8185V11.1815C1.63647 11.618 2.01747 12 2.45397 12H9.54597C9.98247 12 10.3635 11.618 10.3635 11.1815V3.5225H7.90897C7.62649 3.51976 7.35635 3.40629 7.15664 3.20649C6.95692 3.00668 6.84358 2.73649 6.84097 2.454V0H2.45397ZM7.34097 0.25V2.454C7.34097 2.7445 7.61847 3.0225 7.90897 3.0225H10.1135L7.34097 0.25ZM3.81847 5.8905H8.18148V9.8185H3.81847V5.89V5.8905ZM4.36347 6.4365V7.091H5.72747V6.4365H4.36347ZM6.27247 6.4365V7.091H7.63647V6.4365H6.27247ZM4.36347 7.5275V8.1815H5.72747V7.5275H4.36347ZM6.27247 7.5275V8.1815H7.63647V7.5275H6.27247ZM4.36347 8.618V9.2725H5.72747V8.618H4.36347ZM6.27247 8.618V9.2725H7.63647V8.618H6.27247Z" fill="white"/>
</svg>
