<svg width="16" height="16" viewBox="0 0 16 16" fill="none" xmlns="http://www.w3.org/2000/svg">
<path d="M10.1812 0C6.96875 0 4.3625 2.60625 4.3625 5.81875C4.3625 6.86562 4.64375 7.84375 5.125 8.69375L0 13.8188L0.728125 15.2719L2.18125 16L7.30625 10.875C8.15312 11.3594 9.13437 11.6375 10.1812 11.6375C13.3937 11.6375 16 9.03125 16 5.81875C16 2.60625 13.3937 0 10.1812 0ZM10.1812 9.81875C7.97187 9.81875 6.18125 8.02812 6.18125 5.81875C6.18125 3.60938 7.97187 1.81875 10.1812 1.81875C12.3906 1.81875 14.1812 3.60938 14.1812 5.81875C14.1812 8.02812 12.3906 9.81875 10.1812 9.81875Z" fill="#93A66A"/>
</svg>
